{
  "accessors": [
    {
      "bufferView": 0,
      "componentType": 5126,
      "count": 96402,
      "max": [
        1081.39501953125,
        1837.76599121094,
        1319.76000976563
      ],
      "min": [
        -1080.97595214844,
        -1837.92895507813,
        -1319.71105957031
      ],
      "type": "VEC3"
    },
    {
      "bufferView": 1,
      "componentType": 5126,
      "count": 96402,
      "type": "VEC3"
    },
    {
      "bufferView": 2,
      "componentType": 5126,
      "count": 96402,
      "type": "VEC2"
    },
    {
      "bufferView": 3,
      "componentType": 5125,
      "count": 450000,
      "type": "SCALAR"
    }
  ],
  "asset": {
    "generator": "MeshSmith mesh conversion tool",
    "version": "2.0"
  },
  "bufferViews": [
    {
      "buffer": 0,
      "byteLength": 1156824,
      "target": 34962
    },
    {
      "buffer": 0,
      "byteLength": 1156824,
      "byteOffset": 1156824,
      "target": 34962
    },
    {
      "buffer": 0,
      "byteLength": 771216,
      "byteOffset": 2313648,
      "target": 34962
    },
    {
      "buffer": 0,
      "byteLength": 1800000,
      "byteOffset": 3084864,
      "target": 34963
    }
  ],
  "buffers": [
    {
      "byteLength": 4884864,
      "uri": "george-washington-greenough-statue-(1840)-150k-4096-web.bin"
    }
  ],
  "images": [
    {
      "uri": "george-washington-greenough-statue-(1840)-150k-4096-diffuse.jpg"
    },
    {
      "uri": "george-washington-greenough-statue-(1840)-150k-4096-occlusion.jpg"
    },
    {
      "uri": "george-washington-greenough-statue-(1840)-150k-4096-normals.jpg"
    }
  ],
  "materials": [
    {
      "name": "default",
      "normalTexture": {
        "index": 2
      },
      "occlusionTexture": {
        "index": 1
      },
      "pbrMetallicRoughness": {
        "baseColorTexture": {
          "index": 0
        },
        "metallicFactor": 0.100000001490116,
        "roughnessFactor": 0.800000011920929
      }
    }
  ],
  "meshes": [
    {
      "primitives": [
        {
          "attributes": {
            "NORMAL": 1,
            "POSITION": 0,
            "TEXCOORD_0": 2
          },
          "indices": 3,
          "material": 0,
          "mode": 4
        }
      ]
    }
  ],
  "nodes": [
    {
      "mesh": 0
    }
  ],
  "scene": 0,
  "scenes": [
    {
      "nodes": [
        0
      ]
    }
  ],
  "textures": [
    {
      "source": 0
    },
    {
      "source": 1
    },
    {
      "source": 2
    }
  ]
}